HIERARCHY
ROOT pelvis
{
  OFFSET 0 100 0
  CHANNELS 6 Xposition Yposition Zposition Zrotation Xrotation Yrotation
  JOINT pelvis_right_femur
  {
    OFFSET -10.78128 -3.44521 -0.5502486
    CHANNELS 3 Zrotation Xrotation Yrotation
    JOINT right_femur_tibia
    {
      OFFSET -0.8047443 -44.0398 -0.1307829
      CHANNELS 3 Zrotation Xrotation Yrotation
      JOINT right_tibia_foot
      {
        OFFSET 3.006224 -47.83518 -5
        CHANNELS 3 Zrotation Xrotation Yrotation
        End Site
        {
          OFFSET 0 -5 15
        }
      }
    }
  }
  JOINT pelvis_left_femur
  {
    OFFSET 10.78128 -3.44521 -0.5502486
    CHANNELS 3 Zrotation Xrotation Yrotation
    JOINT left_femur_tibia
    {
      OFFSET 0.8047443 -44.0398 -0.1307829
      CHANNELS 3 Zrotation Xrotation Yrotation
      JOINT left_tibia_foot
      {
        OFFSET -4.370144 -48.10324 -4.275266
        CHANNELS 3 Zrotation Xrotation Yrotation
        End Site
        {
          OFFSET 0 -5 15
        }
      }
    }
  }
  JOINT pelvis_spine1
  {
    OFFSET 0 6.468898 -3.129235
    CHANNELS 3 Zrotation Xrotation Yrotation
    JOINT spine1
    {
      OFFSET 0 23.15396 4.99043
      CHANNELS 3 Zrotation Xrotation Yrotation
      JOINT spine2
      {
        OFFSET 0 20.79997 -5.064912
        CHANNELS 3 Zrotation Xrotation Yrotation
        JOINT neck
        {
          OFFSET 0 14.38658 9.616178
          CHANNELS 3 Zrotation Xrotation Yrotation
          End Site
          {
            OFFSET 0 20 0
          }
        }
      }
      JOINT right_manubrium
      {
        OFFSET -5.722621 16.35077 3.967754
        CHANNELS 3 Zrotation Xrotation Yrotation
        JOINT right_clavicle
        {
          OFFSET -13.16364 1.694482 -4.693211
          CHANNELS 3 Zrotation Xrotation Yrotation
          JOINT right_humerus
          {
            OFFSET -28.5034 -0.3100689 -2.792744
            CHANNELS 3 Zrotation Xrotation Yrotation
            JOINT right_radius
            {
              OFFSET -25.15693 0.02248979 -1.271978
              CHANNELS 3 Zrotation Xrotation Yrotation
              End Site
              {
                OFFSET -15 0 0
              }
            }
          }
        }
      }
      JOINT left_manubrium
      {
        OFFSET 5.722621 16.35077 3.967754
        CHANNELS 3 Zrotation Xrotation Yrotation
        JOINT left_clavicle
        {
          OFFSET 13.16364 1.694482 -4.693211
          CHANNELS 3 Zrotation Xrotation Yrotation
          JOINT left_humerus
          {
            OFFSET 29.39168 -1.063119 -2.237045
            CHANNELS 3 Zrotation Xrotation Yrotation
            JOINT left_radius
            {
              OFFSET 24.59957 -0.9528479 0.9047498
              CHANNELS 3 Zrotation Xrotation Yrotation
              End Site
              {
                OFFSET 15 -0 -0
              }
            }
          }
        }
      }
    }
  }
}
MOTION
Frames: 21
Frame Time: 0.0416666666667
95.62256 103.3125 3005.439 -0.6230476 -6.966856 -4.133829 6.086681 3.13639 3.531527 -0 12.49072 -0 -5.994461 -10.67695 -3.964658 -0.9544737 -10.42271 -6.031477 -0 52.79359 -0 -5.278022 -4.344384 16.82641 1.370581 -2.967004 5.938703 0.2397895 15.64087 -6.254551 1.328319 21.73262 3.391626 1.566599 -21.57119 5.380078 -4.839483 -27.15478 11.89432 94.88008 15.85732 -16.61299 -0 0 18.07823 -19.52744 8.538448 8.748217 4.658483 -25.35748 -7.719372 -92.23403 11.75437 27.55295 0 0 -14.86113 13.73971 15.88644 -3.588838
95.39435 103.4355 3011.223 -0.6073686 -6.773273 -5.06744 5.558847 7.509239 2.846731 -0 10.47287 -0 -5.87872 -12.132 -3.050268 0.001739365 -15.13892 -5.197673 -0 44.53988 -0 -4.743184 -4.463888 17.50808 1.401281 -2.928734 6.641551 -0.1133077 15.69156 -5.58972 1.33825 21.70134 3.242739 1.537034 -21.44084 5.21679 -4.797083 -28.18538 11.9366 93.6796 15.92588 -14.46886 -0 0 20.31861 -20.22116 8.554332 9.55974 4.342591 -24.37221 -7.480322 -93.66499 11.56012 30.31356 0 0 -12.04951 12.83873 15.89684 -2.438089
95.29972 102.9693 3017.146 -0.5389322 -6.534044 -5.908153 4.921965 11.36876 2.114866 -0 9.061611 -0 -5.634713 -13.20054 -2.139733 0.8900465 -19.30425 -4.416801 -0 34.89343 -0 -4.119133 -4.988098 18.13852 1.380293 -2.83448 7.313997 -0.4737601 15.6587 -4.908446 1.363924 21.69264 3.125364 1.522073 -21.20782 5.082526 -4.659989 -29.03662 11.97149 92.38235 16.06867 -12.28621 -0 0 22.45327 -21.01255 8.63379 10.42417 4.038561 -23.30611 -7.196947 -95.00322 11.42214 32.79528 0 0 -9.281535 11.78836 15.78711 -1.12239
95.33641 102.0078 3023.164 -0.4339877 -6.342021 -6.630404 4.25325 14.5483 1.597338 -0 8.920567 -0 -5.29627 -13.88173 -1.373245 1.514216 -22.61618 -3.928979 -0 25.92315 -0 -3.48648 -5.641633 18.76396 1.304388 -2.686574 7.901413 -0.8124498 15.53599 -4.263434 1.405913 21.70945 3.050287 1.521789 -20.88085 4.991648 -4.432202 -29.62619 11.99493 91.07357 16.28111 -10.22854 -0 0 24.30831 -21.84876 8.775447 11.28008 3.767869 -22.23187 -6.887769 -96.13454 11.39655 34.79291 0 0 -6.781125 10.6472 15.54862 0.2865721
95.47815 100.7756 3029.24 -0.3134036 -6.33731 -7.215995 3.567551 16.83335 1.428222 -0 10.73399 -0 -4.833865 -13.886 -0.9165355 1.700993 -24.67361 -3.82942 -0 19.47838 -0 -3.03438 -6.208644 19.29141 1.180822 -2.501924 8.333138 -1.08747 15.33688 -3.73238 1.459318 21.75016 3.027847 1.536881 -20.49738 4.955629 -4.137778 -29.879 12.0032 89.89566 16.55522 -8.538839 -0 0 25.65943 -22.63232 8.965415 12.02787 3.563042 -21.27534 -6.589804 -96.91706 11.52225 36.07247 0 0 -4.847616 9.553752 15.20666 1.619104
95.68298 99.56428 3035.399 -0.1901671 -6.629263 -7.635749 2.837943 18.13364 1.58001 -0 14.84622 -0 -4.188849 -12.87261 -0.8751661 1.409033 -25.24625 -4.035159 -0 16.34488 -0 -2.941248 -6.610364 19.57672 1.024747 -2.304204 8.567336 -1.269851 15.0906 -3.370459 1.515549 21.80846 3.060999 1.568942 -20.10507 4.974128 -3.808491 -29.78089 11.99601 88.96137 16.88712 -7.389954 -0 0 26.37438 -23.27774 9.183964 12.58937 3.448331 -20.54202 -6.337922 -97.26901 11.79193 36.52509 0 0 -3.666321 8.652691 14.81392 2.697095
95.9125 98.64134 3041.703 -0.06090692 -7.20702 -7.849808 2.043659 18.49219 1.935622 -0 21.02388 -0 -3.340711 -10.78773 -1.241001 0.7185656 -24.40259 -4.419471 -0 16.00705 -0 -3.223968 -6.916196 19.56618 0.8548432 -2.114206 8.614232 -1.357754 14.82961 -3.183357 1.566972 21.87558 3.140703 1.616229 -19.74308 5.034973 -3.475108 -29.39614 11.97623 88.30654 17.26406 -6.799544 -0 0 26.48793 -23.74783 9.410537 12.94397 3.424003 -20.06527 -6.148487 -97.2191 12.1569 36.23899 0 0 -3.217044 8.013764 14.42601 3.437046
96.14558 98.19381 3048.196 0.092182 -7.950835 -7.816427 1.192489 17.89421 2.37643 -0 28.6787 -0 -2.323857 -7.856353 -1.938069 -0.2793414 -22.29724 -4.946581 -0 17.28724 -0 -3.744298 -7.292585 19.30855 0.6876765 -1.945477 8.508946 -1.364088 14.57856 -3.149517 1.609495 21.94393 3.252302 1.673164 -19.43586 5.123976 -3.16307 -28.81481 11.94693 87.92381 17.66183 -6.70186 -0 0 26.11525 -24.03885 9.628219 13.10544 3.475458 -19.83054 -6.023589 -96.85044 12.56271 35.38568 0 0 -3.381706 7.637069 14.08176 3.843734
96.38007 98.31385 3054.86 0.2914932 -8.690008 -7.499471 0.3231701 16.14613 2.807472 -0 37.1298 -0 -1.213069 -4.408122 -2.878883 -1.531621 -18.96614 -5.675823 -0 18.99096 -0 -4.300193 -7.947372 18.88793 0.5347263 -1.806229 8.275374 -1.298404 14.35277 -3.253607 1.641362 22.00883 3.38469 1.734328 -19.19802 5.232328 -2.891297 -28.09758 11.90989 87.81418 18.05543 -7.053921 -0 0 25.33557 -24.14935 9.825453 13.08312 3.5915 -19.82595 -5.963969 -96.22177 12.96925 34.07952 0 0 -4.082219 7.512016 13.80379 3.934009
96.62745 98.99005 3061.598 0.545077 -9.218279 -6.887258 -0.4702773 12.97907 3.157664 -0 45.44803 -0 -0.1552778 -0.9151204 -3.943664 -2.967241 -14.42627 -6.70144 -0 20.16916 -0 -4.662658 -9.055313 18.41343 0.4061271 -1.705365 7.917215 -1.160651 14.16616 -3.498651 1.660805 22.06684 3.530868 1.795436 -19.04575 5.355746 -2.679689 -27.27459 11.86632 88.01334 18.41563 -7.873096 -0 0 24.16361 -24.06126 9.990499 12.86439 3.770141 -20.06745 -5.977298 -95.35054 13.34077 32.35485 0 0 -5.319055 7.655287 13.61196 3.689448
96.90032 100.0916 3068.227 0.8182194 -9.309744 -6.028346 -1.0107 8.311641 3.392391 -0 52.13373 -0 0.5763699 1.893146 -4.922135 -4.410971 -8.958225 -8.072976 -0 20.32783 -0 -4.604865 -10.63719 18.0338 0.3149358 -1.655732 7.431785 -0.9465555 14.03725 -3.896206 1.66541 22.11376 3.682787 1.851224 -19.0016 5.489983 -2.555844 -26.37538 11.8184 88.58126 18.6956 -9.203285 -0 0 22.59462 -23.74459 10.10554 12.42425 4.011596 -20.58799 -6.07684 -94.24693 13.63185 30.23082 0 0 -7.122786 8.103722 13.52891 3.067794
97.19247 101.3688 3074.539 1.022666 -8.818818 -5.048553 -1.088967 2.526058 3.485607 -0 55.23241 -0 0.653891 3.255983 -5.543995 -5.559256 -3.285853 -9.651918 -0 19.54395 -0 -4.033669 -12.47453 17.84814 0.2742305 -1.66887 6.833489 -0.659824 13.98366 -4.441909 1.6539 22.14503 3.828077 1.89459 -19.08332 5.62773 -2.546695 -25.45328 11.7703 89.54723 18.83344 -11.03024 -0 0 20.67851 -23.18845 10.14986 11.75879 4.305836 -21.39488 -6.268941 -92.96252 13.79482 27.79666 0 0 -9.457911 8.867294 13.5669 2.063402
97.47013 102.5066 3080.449 1.068193 -7.815515 -4.099419 -0.6384395 -3.564705 3.344504 -0 53.35855 -0 -0.03622118 2.985151 -5.671089 -6.129209 1.681082 -11.03325 -0 18.13354 -0 -3.142472 -14.23287 17.74529 0.286157 -1.743378 6.166429 -0.3211594 14.00643 -5.095618 1.628264 22.15889 3.954971 1.921038 -19.28257 5.75987 -2.653543 -24.57499 11.72736 90.84189 18.79013 -13.21128 -0 0 18.55699 -22.43703 10.11472 10.91862 4.627753 -22.427 -6.537544 -91.60449 13.80789 25.23387 0 0 -12.15465 9.884058 13.70755 0.7602982
97.68818 103.2329 3086.036 0.9370233 -6.546256 -3.281349 0.1723025 -9.279111 2.88139 -0 46.92736 -0 -1.265101 1.631009 -5.423539 -6.099925 5.51257 -11.8496 -0 16.34966 -0 -2.273242 -15.72528 17.49295 0.3357937 -1.861445 5.48168 0.04082643 14.08391 -5.798309 1.592809 22.15862 4.06227 1.934797 -19.56133 5.880956 -2.840009 -23.77458 11.69346 92.31472 18.58844 -15.53571 -0 0 16.38892 -21.57783 10.01412 9.990994 4.952053 -23.57754 -6.847985 -90.27554 13.68688 22.70903 0 0 -14.98471 11.04871 13.90456 -0.71008
97.80623 103.405 3091.435 0.6808385 -5.250185 -2.627346 1.096987 -14.49589 2.154843 -0 37.87677 -0 -2.687086 -0.0469849 -5.045661 -5.698369 8.510429 -12.08946 -0 14.54255 -0 -1.636367 -16.97072 16.97863 0.4029509 -2.001939 4.80914 0.4059621 14.18865 -6.506854 1.551349 22.14965 4.157372 1.944823 -19.87813 5.990926 -3.060054 -23.04368 11.66952 93.8336 18.28514 -17.85089 -0 0 14.26378 -20.68699 9.872092 9.046102 5.266789 -24.76061 -7.16942 -89.02357 13.46221 20.29043 0 0 -17.79243 12.2792 14.1129 -2.250928
97.79294 103.0149 3096.78 0.3679623 -4.103802 -2.127777 1.955605 -19.30126 1.292347 -0 28.26401 -0 -4.029791 -1.447769 -4.73442 -5.169596 11.15699 -11.89688 -0 13.22132 -0 -1.32976 -18.01339 16.19133 0.4766026 -2.150808 4.17396 0.7581891 14.30389 -7.188459 1.507363 22.13535 4.241928 1.953695 -20.20588 6.089193 -3.288206 -22.38757 11.65459 95.30804 17.91925 -20.04739 -0 0 12.25896 -19.81626 9.705634 8.133689 5.560629 -25.9121 -7.481446 -87.88792 13.1697 18.04837 0 0 -20.46046 13.503 14.30758 -3.774248
97.63318 102.1636 3102.216 0.06205754 -3.275723 -1.750556 2.635429 -23.49646 0.4060887 -0 19.73868 -0 -5.085955 -2.154017 -4.599542 -4.67973 13.60658 -11.34438 -0 13.00784 -0 -1.448944 -18.77416 15.1472 0.5549086 -2.298474 3.617452 1.075248 14.42196 -7.800556 1.465533 22.11671 4.30704 1.955057 -20.52561 6.171324 -3.517589 -21.85256 11.64672 96.64789 17.51122 -21.99119 -0 0 10.50667 -19.01531 9.525851 7.308791 5.811277 -26.95584 -7.765946 -86.93695 12.86413 16.13552 0 0 -22.8294 14.61637 14.48173 -5.147825
97.33769 101.0512 3107.894 -0.1781781 -2.935928 -1.455825 3.090868 -26.51428 -0.3636062 -0 13.69526 -0 -5.688503 -1.962453 -4.687926 -4.336032 15.61866 -10.46792 -0 14.61338 -0 -2.056961 -19.03641 13.93487 0.638613 -2.436662 3.184714 1.3332 14.53864 -8.298216 1.430607 22.09413 4.341336 1.940649 -20.82055 6.231515 -3.746009 -21.4952 11.64352 97.76402 17.08474 -23.54599 -0 0 9.151836 -18.33277 9.344063 6.627092 5.99469 -27.81355 -8.006413 -86.23761 12.60861 14.72187 0 0 -24.72931 15.51053 14.64016 -6.232872
96.94184 99.95089 3113.926 -0.3171837 -3.162311 -1.217125 3.395137 -27.73443 -0.8184263 -0 10.89198 -0 -5.790955 -1.050151 -4.984708 -4.167999 16.73315 -9.374436 -0 18.60088 -0 -3.076059 -18.55473 12.76604 0.7270158 -2.559285 2.907533 1.514392 14.6525 -8.648448 1.404861 22.06786 4.338716 1.907848 -21.07725 6.264252 -3.967887 -21.35332 11.64389 98.58949 16.67455 -24.61624 -0 0 8.295467 -17.80669 9.172064 6.129964 6.097046 -28.43053 -8.191443 -85.82895 12.44202 13.92224 0 0 -26.03179 16.12221 14.79176 -6.951306
96.48763 99.14534 3120.317 -0.3638402 -3.856614 -1.042625 3.723826 -26.91539 -0.7716562 -0 10.95885 -0 -5.540085 0.003954097 -5.406399 -4.102482 16.56581 -8.274721 -0 25.06384 -0 -4.264407 -17.2174 11.92014 0.8171709 -2.663289 2.802399 1.60864 14.7656 -8.832069 1.387117 22.03785 4.299817 1.86198 -21.28637 6.263801 -4.172504 -21.44343 11.64919 99.08237 16.32233 -25.14945 -0 0 7.987717 -17.46406 9.020154 5.843056 6.116751 -28.78081 -8.314728 -85.72832 12.36095 13.79074 0 0 -26.65319 16.44891 14.94233 -7.305393
96.00366 98.85099 3126.935 -0.3628893 -4.792775 -0.982474 4.226674 -24.2492 -0.1511911 -0 12.70758 -0 -5.206647 0.480726 -5.816 -4.013123 14.95446 -7.412813 -0 33.53111 -0 -5.327393 -15.10485 11.63249 0.9056603 -2.747781 2.882294 1.607752 14.88289 -8.833474 1.374249 22.00335 4.227472 1.812277 -21.44122 6.223023 -4.347423 -21.77937 11.66292 99.20835 16.06683 -25.1016 -0 0 8.266622 -17.32943 8.895857 5.788065 6.056323 -28.849 -8.371336 -85.95694 12.332 14.37062 0 0 -26.51605 16.51765 15.09325 -7.335702
